<svg width="304" height="21" viewBox="0 0 304 21" fill="none" xmlns="http://www.w3.org/2000/svg">
<g clip-path="url(#clip0_2_38)">
<path d="M20.0001 10C20.0001 18.9324 19.0325 20 10.0369 20C1.04134 20 0.00201416 18.8612 0.00201416 10C0.00201416 1.13879 1.36389 0 10.0369 0C18.7099 0 20.0001 1.06762 20.0001 10Z" fill="url(#paint0_linear_2_38)"/>
<path d="M3.14258 19.2697L13.6209 8L19.8519 14.2316C19.3567 19.294 17.3491 19.9995 10.0365 19.9995C6.83436 19.9995 4.64038 19.8552 3.14258 19.2697Z" fill="#0A191F" fill-opacity="0.05"/>
<g clip-path="url(#clip1_2_38)">
<path d="M0.484192 16.1334L5.47471 8.92856L12.5715 13.8447L8.3104 19.9965C3.33891 19.8768 1.29293 19.1286 0.484192 16.1334Z" fill="#0A191F"/>
<path fill-rule="evenodd" clip-rule="evenodd" d="M13.5788 14.1335C14.3331 13.4211 14.8964 12.4746 14.719 11.6608C14.6683 11.3102 14.4701 11.0212 14.0604 10.6845C14.1176 10.2618 14.5945 9.43248 14.0443 8.50121C13.9872 8.40394 13.9249 8.3178 13.8589 8.24149C13.6256 7.92213 13.2674 7.67927 12.8667 7.59201C12.4532 7.50225 12.1894 7.57163 11.9043 7.59949C11.8288 7.32207 11.8034 7.05094 11.5732 6.69495C11.3634 6.37031 11.0362 6.12927 10.6796 6.016C10.5623 5.96511 10.4318 5.92543 10.2878 5.90054C9.21436 5.71084 8.60056 6.45506 8.2222 6.65893C7.52989 6.25835 7.10538 6.26749 6.53018 6.61351C5.97555 6.94677 5.50265 7.56954 5.22747 8.22379C3.29714 12.6332 9.6345 17.8585 13.5794 14.1343" fill="#0A191F"/>
<path fill-rule="evenodd" clip-rule="evenodd" d="M10.6693 11.2586C11.5636 12.104 11.201 13.0302 10.6318 13.3471C9.96556 13.7181 9.11072 13.3418 8.30784 12.7824C7.49334 12.2148 6.84064 11.6056 6.89168 10.8193C6.92136 10.3625 7.32792 9.96573 7.70169 9.84394C8.10819 9.7111 8.36093 9.7594 8.86139 10.0046C9.87743 9.18792 11.0928 9.90135 10.6686 11.2593" fill="white"/>
<path fill-rule="evenodd" clip-rule="evenodd" d="M10.6179 7.10821C11.3449 8.10468 9.93113 9.55392 9.26046 8.60983C9.01871 8.27025 9.07679 7.66176 9.39021 7.25438C9.69143 6.86336 10.2806 6.64577 10.6186 7.10827" fill="white"/>
<path fill-rule="evenodd" clip-rule="evenodd" d="M13.1854 8.86816C13.8441 9.68542 12.3463 11.0923 11.5699 10.2285C11.2725 9.89803 11.4672 9.2632 11.8969 8.91096C12.2148 8.65005 12.8521 8.45522 13.1854 8.86816Z" fill="white"/>
<path fill-rule="evenodd" clip-rule="evenodd" d="M13.8409 11.9886C14.3482 12.8433 12.6427 13.6284 12.1443 12.815C11.6586 12.0221 13.3113 11.0966 13.8409 11.9886Z" fill="white"/>
<path fill-rule="evenodd" clip-rule="evenodd" d="M7.62892 7.69076C8.30113 8.67764 7.1701 9.86307 6.5415 8.91739C5.92759 7.99534 6.97422 6.72846 7.62892 7.69076Z" fill="white"/>
</g>
</g>
<path d="M33.382 17.144C32.446 17.144 31.63 16.994 30.934 16.694C30.238 16.394 29.698 15.974 29.314 15.434C28.942 14.894 28.756 14.258 28.756 13.526V13.076C28.756 13.016 28.774 12.968 28.81 12.932C28.858 12.884 28.912 12.86 28.972 12.86H30.574C30.634 12.86 30.682 12.884 30.718 12.932C30.766 12.968 30.79 13.016 30.79 13.076V13.418C30.79 13.97 31.036 14.432 31.528 14.804C32.02 15.164 32.692 15.344 33.544 15.344C34.276 15.344 34.828 15.188 35.2 14.876C35.572 14.564 35.758 14.162 35.758 13.67C35.758 13.334 35.656 13.052 35.452 12.824C35.248 12.584 34.954 12.368 34.57 12.176C34.198 11.984 33.634 11.744 32.878 11.456C32.026 11.144 31.336 10.85 30.808 10.574C30.28 10.298 29.836 9.926 29.476 9.458C29.128 8.978 28.954 8.384 28.954 7.676C28.954 6.62 29.338 5.786 30.106 5.174C30.874 4.562 31.9 4.256 33.184 4.256C34.084 4.256 34.876 4.412 35.56 4.724C36.256 5.036 36.796 5.474 37.18 6.038C37.564 6.59 37.756 7.232 37.756 7.964V8.27C37.756 8.33 37.732 8.384 37.684 8.432C37.648 8.468 37.6 8.486 37.54 8.486H35.92C35.86 8.486 35.806 8.468 35.758 8.432C35.722 8.384 35.704 8.33 35.704 8.27V8.072C35.704 7.508 35.47 7.034 35.002 6.65C34.546 6.254 33.91 6.056 33.094 6.056C32.434 6.056 31.918 6.194 31.546 6.47C31.186 6.746 31.006 7.136 31.006 7.64C31.006 8 31.102 8.294 31.294 8.522C31.486 8.75 31.774 8.96 32.158 9.152C32.542 9.332 33.136 9.566 33.94 9.854C34.792 10.178 35.47 10.472 35.974 10.736C36.49 11 36.928 11.372 37.288 11.852C37.66 12.32 37.846 12.908 37.846 13.616C37.846 14.696 37.444 15.554 36.64 16.19C35.848 16.826 34.762 17.144 33.382 17.144ZM40.9388 6.542C40.5668 6.542 40.2608 6.422 40.0208 6.182C39.7808 5.942 39.6608 5.636 39.6608 5.264C39.6608 4.892 39.7808 4.586 40.0208 4.346C40.2608 4.106 40.5668 3.986 40.9388 3.986C41.3108 3.986 41.6168 4.106 41.8568 4.346C42.0968 4.586 42.2168 4.892 42.2168 5.264C42.2168 5.636 42.0968 5.942 41.8568 6.182C41.6168 6.422 41.3108 6.542 40.9388 6.542ZM40.0748 17C40.0148 17 39.9608 16.982 39.9128 16.946C39.8768 16.898 39.8588 16.844 39.8588 16.784V8C39.8588 7.94 39.8768 7.892 39.9128 7.856C39.9608 7.808 40.0148 7.784 40.0748 7.784H41.7308C41.7908 7.784 41.8388 7.808 41.8748 7.856C41.9228 7.892 41.9468 7.94 41.9468 8V16.784C41.9468 16.844 41.9228 16.898 41.8748 16.946C41.8388 16.982 41.7908 17 41.7308 17H40.0748ZM54.1847 7.658C55.1087 7.658 55.8287 7.94 56.3447 8.504C56.8727 9.056 57.1367 9.83 57.1367 10.826V16.784C57.1367 16.844 57.1127 16.898 57.0647 16.946C57.0287 16.982 56.9807 17 56.9207 17H55.2827C55.2227 17 55.1687 16.982 55.1207 16.946C55.0847 16.898 55.0667 16.844 55.0667 16.784V11.258C55.0667 10.706 54.9167 10.268 54.6167 9.944C54.3287 9.62 53.9387 9.458 53.4467 9.458C52.9547 9.458 52.5527 9.62 52.2407 9.944C51.9287 10.268 51.7727 10.7 51.7727 11.24V16.784C51.7727 16.844 51.7487 16.898 51.7007 16.946C51.6647 16.982 51.6167 17 51.5567 17H49.9187C49.8587 17 49.8047 16.982 49.7567 16.946C49.7207 16.898 49.7027 16.844 49.7027 16.784V11.258C49.7027 10.706 49.5527 10.268 49.2527 9.944C48.9527 9.62 48.5567 9.458 48.0647 9.458C47.6087 9.458 47.2307 9.59 46.9307 9.854C46.6427 10.118 46.4747 10.478 46.4267 10.934V16.784C46.4267 16.844 46.4027 16.898 46.3547 16.946C46.3187 16.982 46.2707 17 46.2107 17H44.5547C44.4947 17 44.4407 16.982 44.3927 16.946C44.3567 16.898 44.3387 16.844 44.3387 16.784V8.018C44.3387 7.958 44.3567 7.91 44.3927 7.874C44.4407 7.826 44.4947 7.802 44.5547 7.802H46.2107C46.2707 7.802 46.3187 7.826 46.3547 7.874C46.4027 7.91 46.4267 7.958 46.4267 8.018V8.612C46.4267 8.648 46.4387 8.672 46.4627 8.684C46.4867 8.696 46.5107 8.684 46.5347 8.648C46.7987 8.312 47.1227 8.066 47.5067 7.91C47.9027 7.742 48.3407 7.658 48.8207 7.658C49.4087 7.658 49.9247 7.778 50.3687 8.018C50.8127 8.258 51.1547 8.606 51.3947 9.062C51.4307 9.11 51.4727 9.11 51.5207 9.062C51.7847 8.582 52.1507 8.228 52.6187 8C53.0867 7.772 53.6087 7.658 54.1847 7.658ZM67.0565 10.178C67.2725 10.79 67.3805 11.54 67.3805 12.428C67.3805 13.28 67.2785 14.012 67.0745 14.624C66.8105 15.416 66.3845 16.034 65.7965 16.478C65.2205 16.922 64.4885 17.144 63.6005 17.144C62.7485 17.144 62.0645 16.838 61.5485 16.226C61.5245 16.202 61.5005 16.196 61.4765 16.208C61.4525 16.22 61.4405 16.244 61.4405 16.28V20.186C61.4405 20.246 61.4165 20.294 61.3685 20.33C61.3325 20.378 61.2845 20.402 61.2245 20.402H59.5685C59.5085 20.402 59.4545 20.378 59.4065 20.33C59.3705 20.294 59.3525 20.246 59.3525 20.186V8.018C59.3525 7.958 59.3705 7.91 59.4065 7.874C59.4545 7.826 59.5085 7.802 59.5685 7.802H61.2245C61.2845 7.802 61.3325 7.826 61.3685 7.874C61.4165 7.91 61.4405 7.958 61.4405 8.018V8.558C61.4405 8.594 61.4525 8.618 61.4765 8.63C61.5005 8.642 61.5245 8.63 61.5485 8.594C62.0765 7.97 62.7665 7.658 63.6185 7.658C64.4705 7.658 65.1905 7.88 65.7785 8.324C66.3665 8.768 66.7925 9.386 67.0565 10.178ZM64.7165 14.588C65.0765 14.036 65.2565 13.304 65.2565 12.392C65.2565 11.516 65.1125 10.826 64.8245 10.322C64.4885 9.734 63.9785 9.44 63.2945 9.44C62.6705 9.44 62.2025 9.728 61.8905 10.304C61.6145 10.772 61.4765 11.468 61.4765 12.392C61.4765 13.34 61.6265 14.06 61.9265 14.552C62.2385 15.08 62.6885 15.344 63.2765 15.344C63.9125 15.344 64.3925 15.092 64.7165 14.588ZM69.6211 17C69.5611 17 69.5071 16.982 69.4591 16.946C69.4231 16.898 69.4051 16.844 69.4051 16.784V4.616C69.4051 4.556 69.4231 4.508 69.4591 4.472C69.5071 4.424 69.5611 4.4 69.6211 4.4H71.2771C71.3371 4.4 71.3851 4.424 71.4211 4.472C71.4691 4.508 71.4931 4.556 71.4931 4.616V16.784C71.4931 16.844 71.4691 16.898 71.4211 16.946C71.3851 16.982 71.3371 17 71.2771 17H69.6211ZM81.4697 11.366C81.5177 11.666 81.5417 12.002 81.5417 12.374L81.5237 12.932C81.5237 13.076 81.4517 13.148 81.3077 13.148H75.6737C75.6137 13.148 75.5837 13.178 75.5837 13.238C75.6197 13.634 75.6737 13.904 75.7457 14.048C76.0337 14.912 76.7357 15.35 77.8517 15.362C78.6677 15.362 79.3157 15.026 79.7957 14.354C79.8437 14.282 79.9037 14.246 79.9757 14.246C80.0237 14.246 80.0657 14.264 80.1017 14.3L81.2177 15.218C81.3257 15.302 81.3437 15.398 81.2717 15.506C80.8997 16.034 80.4017 16.442 79.7777 16.73C79.1657 17.018 78.4817 17.162 77.7257 17.162C76.7897 17.162 75.9917 16.952 75.3317 16.532C74.6837 16.112 74.2097 15.524 73.9097 14.768C73.6337 14.12 73.4957 13.22 73.4957 12.068C73.4957 11.372 73.5677 10.808 73.7117 10.376C73.9517 9.536 74.4017 8.876 75.0617 8.396C75.7337 7.904 76.5377 7.658 77.4737 7.658C79.8377 7.658 81.1697 8.894 81.4697 11.366ZM77.4737 9.458C77.0297 9.458 76.6577 9.572 76.3577 9.8C76.0697 10.016 75.8657 10.322 75.7457 10.718C75.6737 10.922 75.6257 11.186 75.6017 11.51C75.5777 11.57 75.6017 11.6 75.6737 11.6H79.3277C79.3877 11.6 79.4177 11.57 79.4177 11.51C79.3937 11.21 79.3577 10.982 79.3097 10.826C79.2017 10.394 78.9857 10.058 78.6617 9.818C78.3497 9.578 77.9537 9.458 77.4737 9.458ZM90.5095 17C90.3895 17 90.3115 16.94 90.2755 16.82L86.4955 4.652L86.4775 4.58C86.4775 4.46 86.5435 4.4 86.6755 4.4H88.4575C88.5895 4.4 88.6735 4.46 88.7095 4.58L91.4095 13.976C91.4215 14.012 91.4395 14.03 91.4635 14.03C91.4875 14.03 91.5055 14.012 91.5175 13.976L94.1995 4.58C94.2355 4.46 94.3195 4.4 94.4515 4.4H96.1975C96.2695 4.4 96.3235 4.424 96.3595 4.472C96.3955 4.52 96.4015 4.58 96.3775 4.652L92.5435 16.82C92.5075 16.94 92.4295 17 92.3095 17H90.5095ZM99.2278 6.542C98.8558 6.542 98.5498 6.422 98.3098 6.182C98.0698 5.942 97.9498 5.636 97.9498 5.264C97.9498 4.892 98.0698 4.586 98.3098 4.346C98.5498 4.106 98.8558 3.986 99.2278 3.986C99.5998 3.986 99.9058 4.106 100.146 4.346C100.386 4.586 100.506 4.892 100.506 5.264C100.506 5.636 100.386 5.942 100.146 6.182C99.9058 6.422 99.5998 6.542 99.2278 6.542ZM98.3638 17C98.3038 17 98.2498 16.982 98.2018 16.946C98.1658 16.898 98.1478 16.844 98.1478 16.784V8C98.1478 7.94 98.1658 7.892 98.2018 7.856C98.2498 7.808 98.3038 7.784 98.3638 7.784H100.02C100.08 7.784 100.128 7.808 100.164 7.856C100.212 7.892 100.236 7.94 100.236 8V16.784C100.236 16.844 100.212 16.898 100.164 16.946C100.128 16.982 100.08 17 100.02 17H98.3638ZM108.334 4.616C108.334 4.556 108.352 4.508 108.388 4.472C108.436 4.424 108.49 4.4 108.55 4.4H110.206C110.266 4.4 110.314 4.424 110.35 4.472C110.398 4.508 110.422 4.556 110.422 4.616V16.784C110.422 16.844 110.398 16.898 110.35 16.946C110.314 16.982 110.266 17 110.206 17H108.55C108.49 17 108.436 16.982 108.388 16.946C108.352 16.898 108.334 16.844 108.334 16.784V16.244C108.334 16.208 108.322 16.184 108.298 16.172C108.274 16.16 108.25 16.172 108.226 16.208C107.698 16.832 107.008 17.144 106.156 17.144C105.304 17.144 104.584 16.922 103.996 16.478C103.408 16.034 102.982 15.416 102.718 14.624C102.502 13.952 102.394 13.202 102.394 12.374C102.394 11.522 102.496 10.79 102.7 10.178C102.964 9.386 103.39 8.768 103.978 8.324C104.566 7.88 105.304 7.658 106.192 7.658C107.02 7.658 107.698 7.958 108.226 8.558C108.25 8.582 108.274 8.594 108.298 8.594C108.322 8.582 108.334 8.558 108.334 8.522V4.616ZM107.902 14.48C108.178 13.988 108.316 13.292 108.316 12.392C108.316 11.456 108.166 10.742 107.866 10.25C107.542 9.722 107.086 9.458 106.498 9.458C105.886 9.458 105.406 9.71 105.058 10.214C104.698 10.742 104.518 11.474 104.518 12.41C104.518 13.25 104.662 13.94 104.95 14.48C105.286 15.056 105.796 15.344 106.48 15.344C107.092 15.344 107.566 15.056 107.902 14.48ZM120.44 11.366C120.488 11.666 120.512 12.002 120.512 12.374L120.494 12.932C120.494 13.076 120.422 13.148 120.278 13.148H114.644C114.584 13.148 114.554 13.178 114.554 13.238C114.59 13.634 114.644 13.904 114.716 14.048C115.004 14.912 115.706 15.35 116.822 15.362C117.638 15.362 118.286 15.026 118.766 14.354C118.814 14.282 118.874 14.246 118.946 14.246C118.994 14.246 119.036 14.264 119.072 14.3L120.188 15.218C120.296 15.302 120.314 15.398 120.242 15.506C119.87 16.034 119.372 16.442 118.748 16.73C118.136 17.018 117.452 17.162 116.696 17.162C115.76 17.162 114.962 16.952 114.302 16.532C113.654 16.112 113.18 15.524 112.88 14.768C112.604 14.12 112.466 13.22 112.466 12.068C112.466 11.372 112.538 10.808 112.682 10.376C112.922 9.536 113.372 8.876 114.032 8.396C114.704 7.904 115.508 7.658 116.444 7.658C118.808 7.658 120.14 8.894 120.44 11.366ZM116.444 9.458C116 9.458 115.628 9.572 115.328 9.8C115.04 10.016 114.836 10.322 114.716 10.718C114.644 10.922 114.596 11.186 114.572 11.51C114.548 11.57 114.572 11.6 114.644 11.6H118.298C118.358 11.6 118.388 11.57 118.388 11.51C118.364 11.21 118.328 10.982 118.28 10.826C118.172 10.394 117.956 10.058 117.632 9.818C117.32 9.578 116.924 9.458 116.444 9.458ZM126.327 17.144C125.379 17.144 124.563 16.904 123.879 16.424C123.207 15.944 122.733 15.278 122.457 14.426C122.253 13.778 122.151 13.094 122.151 12.374C122.151 11.606 122.247 10.922 122.439 10.322C122.715 9.482 123.195 8.828 123.879 8.36C124.563 7.892 125.385 7.658 126.345 7.658C127.257 7.658 128.043 7.892 128.703 8.36C129.375 8.828 129.849 9.476 130.125 10.304C130.341 10.88 130.449 11.564 130.449 12.356C130.449 13.112 130.347 13.796 130.143 14.408C129.867 15.26 129.393 15.932 128.721 16.424C128.049 16.904 127.251 17.144 126.327 17.144ZM126.327 15.344C126.771 15.344 127.149 15.218 127.461 14.966C127.785 14.714 128.019 14.36 128.163 13.904C128.283 13.508 128.343 13.004 128.343 12.392C128.343 11.744 128.283 11.24 128.163 10.88C128.031 10.424 127.803 10.076 127.479 9.836C127.155 9.584 126.759 9.458 126.291 9.458C125.847 9.458 125.463 9.584 125.139 9.836C124.815 10.076 124.581 10.424 124.437 10.88C124.317 11.3 124.257 11.804 124.257 12.392C124.257 12.98 124.317 13.484 124.437 13.904C124.569 14.36 124.797 14.714 125.121 14.966C125.457 15.218 125.859 15.344 126.327 15.344ZM140.292 17.144C139.356 17.144 138.54 16.994 137.844 16.694C137.148 16.394 136.608 15.974 136.224 15.434C135.852 14.894 135.666 14.258 135.666 13.526V13.076C135.666 13.016 135.684 12.968 135.72 12.932C135.768 12.884 135.822 12.86 135.882 12.86H137.484C137.544 12.86 137.592 12.884 137.628 12.932C137.676 12.968 137.7 13.016 137.7 13.076V13.418C137.7 13.97 137.946 14.432 138.438 14.804C138.93 15.164 139.602 15.344 140.454 15.344C141.186 15.344 141.738 15.188 142.11 14.876C142.482 14.564 142.668 14.162 142.668 13.67C142.668 13.334 142.566 13.052 142.362 12.824C142.158 12.584 141.864 12.368 141.48 12.176C141.108 11.984 140.544 11.744 139.788 11.456C138.936 11.144 138.246 10.85 137.718 10.574C137.19 10.298 136.746 9.926 136.386 9.458C136.038 8.978 135.864 8.384 135.864 7.676C135.864 6.62 136.248 5.786 137.016 5.174C137.784 4.562 138.81 4.256 140.094 4.256C140.994 4.256 141.786 4.412 142.47 4.724C143.166 5.036 143.706 5.474 144.09 6.038C144.474 6.59 144.666 7.232 144.666 7.964V8.27C144.666 8.33 144.642 8.384 144.594 8.432C144.558 8.468 144.51 8.486 144.45 8.486H142.83C142.77 8.486 142.716 8.468 142.668 8.432C142.632 8.384 142.614 8.33 142.614 8.27V8.072C142.614 7.508 142.38 7.034 141.912 6.65C141.456 6.254 140.82 6.056 140.004 6.056C139.344 6.056 138.828 6.194 138.456 6.47C138.096 6.746 137.916 7.136 137.916 7.64C137.916 8 138.012 8.294 138.204 8.522C138.396 8.75 138.684 8.96 139.068 9.152C139.452 9.332 140.046 9.566 140.85 9.854C141.702 10.178 142.38 10.472 142.884 10.736C143.4 11 143.838 11.372 144.198 11.852C144.57 12.32 144.756 12.908 144.756 13.616C144.756 14.696 144.354 15.554 143.55 16.19C142.758 16.826 141.672 17.144 140.292 17.144ZM154.419 11.366C154.467 11.666 154.491 12.002 154.491 12.374L154.473 12.932C154.473 13.076 154.401 13.148 154.257 13.148H148.623C148.563 13.148 148.533 13.178 148.533 13.238C148.569 13.634 148.623 13.904 148.695 14.048C148.983 14.912 149.685 15.35 150.801 15.362C151.617 15.362 152.265 15.026 152.745 14.354C152.793 14.282 152.853 14.246 152.925 14.246C152.973 14.246 153.015 14.264 153.051 14.3L154.167 15.218C154.275 15.302 154.293 15.398 154.221 15.506C153.849 16.034 153.351 16.442 152.727 16.73C152.115 17.018 151.431 17.162 150.675 17.162C149.739 17.162 148.941 16.952 148.281 16.532C147.633 16.112 147.159 15.524 146.859 14.768C146.583 14.12 146.445 13.22 146.445 12.068C146.445 11.372 146.517 10.808 146.661 10.376C146.901 9.536 147.351 8.876 148.011 8.396C148.683 7.904 149.487 7.658 150.423 7.658C152.787 7.658 154.119 8.894 154.419 11.366ZM150.423 9.458C149.979 9.458 149.607 9.572 149.307 9.8C149.019 10.016 148.815 10.322 148.695 10.718C148.623 10.922 148.575 11.186 148.551 11.51C148.527 11.57 148.551 11.6 148.623 11.6H152.277C152.337 11.6 152.367 11.57 152.367 11.51C152.343 11.21 152.307 10.982 152.259 10.826C152.151 10.394 151.935 10.058 151.611 9.818C151.299 9.578 150.903 9.458 150.423 9.458ZM159.821 7.658C160.577 7.658 161.243 7.79 161.819 8.054C162.395 8.318 162.839 8.684 163.151 9.152C163.463 9.608 163.619 10.13 163.619 10.718V16.784C163.619 16.844 163.595 16.898 163.547 16.946C163.511 16.982 163.463 17 163.403 17H161.747C161.687 17 161.633 16.982 161.585 16.946C161.549 16.898 161.531 16.844 161.531 16.784V16.208C161.531 16.172 161.519 16.154 161.495 16.154C161.471 16.142 161.447 16.148 161.423 16.172C160.835 16.82 159.983 17.144 158.867 17.144C157.967 17.144 157.223 16.916 156.635 16.46C156.059 16.004 155.771 15.326 155.771 14.426C155.771 13.49 156.095 12.764 156.743 12.248C157.403 11.72 158.327 11.456 159.515 11.456H161.441C161.501 11.456 161.531 11.426 161.531 11.366V10.934C161.531 10.466 161.393 10.106 161.117 9.854C160.841 9.59 160.427 9.458 159.875 9.458C159.419 9.458 159.047 9.542 158.759 9.71C158.483 9.866 158.309 10.088 158.237 10.376C158.201 10.52 158.117 10.58 157.985 10.556L156.239 10.34C156.179 10.328 156.125 10.31 156.077 10.286C156.041 10.25 156.029 10.208 156.041 10.16C156.137 9.428 156.527 8.828 157.211 8.36C157.907 7.892 158.777 7.658 159.821 7.658ZM159.389 15.488C159.977 15.488 160.481 15.332 160.901 15.02C161.321 14.708 161.531 14.312 161.531 13.832V12.986C161.531 12.926 161.501 12.896 161.441 12.896H159.929C159.293 12.896 158.789 13.016 158.417 13.256C158.057 13.496 157.877 13.838 157.877 14.282C157.877 14.666 158.015 14.966 158.291 15.182C158.579 15.386 158.945 15.488 159.389 15.488ZM170 7.694C170.384 7.694 170.72 7.772 171.008 7.928C171.104 7.976 171.14 8.066 171.116 8.198L170.81 9.818C170.798 9.962 170.714 10.004 170.558 9.944C170.378 9.884 170.168 9.854 169.928 9.854C169.772 9.854 169.652 9.86 169.568 9.872C169.064 9.896 168.644 10.076 168.308 10.412C167.972 10.736 167.804 11.162 167.804 11.69V16.784C167.804 16.844 167.78 16.898 167.732 16.946C167.696 16.982 167.648 17 167.588 17H165.932C165.872 17 165.818 16.982 165.77 16.946C165.734 16.898 165.716 16.844 165.716 16.784V8.018C165.716 7.958 165.734 7.91 165.77 7.874C165.818 7.826 165.872 7.802 165.932 7.802H167.588C167.648 7.802 167.696 7.826 167.732 7.874C167.78 7.91 167.804 7.958 167.804 8.018V8.828C167.804 8.876 167.81 8.906 167.822 8.918C167.846 8.918 167.87 8.9 167.894 8.864C168.398 8.084 169.1 7.694 170 7.694ZM176.141 17.144C175.217 17.144 174.419 16.91 173.747 16.442C173.075 15.962 172.607 15.32 172.343 14.516C172.151 13.976 172.055 13.256 172.055 12.356C172.055 11.492 172.151 10.784 172.343 10.232C172.595 9.44 173.057 8.816 173.729 8.36C174.413 7.892 175.217 7.658 176.141 7.658C177.077 7.658 177.893 7.892 178.589 8.36C179.285 8.828 179.747 9.416 179.975 10.124C180.035 10.316 180.077 10.508 180.101 10.7V10.736C180.101 10.856 180.035 10.928 179.903 10.952L178.283 11.186H178.247C178.139 11.186 178.067 11.126 178.031 11.006C178.031 10.946 178.025 10.898 178.013 10.862C177.989 10.766 177.965 10.682 177.941 10.61C177.833 10.274 177.617 9.998 177.293 9.782C176.969 9.566 176.585 9.458 176.141 9.458C175.685 9.458 175.295 9.578 174.971 9.818C174.659 10.046 174.449 10.364 174.341 10.772C174.221 11.156 174.161 11.69 174.161 12.374C174.161 13.034 174.215 13.568 174.323 13.976C174.443 14.396 174.659 14.732 174.971 14.984C175.283 15.224 175.673 15.344 176.141 15.344C176.597 15.344 176.987 15.23 177.311 15.002C177.647 14.762 177.863 14.444 177.959 14.048C177.971 14.024 177.977 13.994 177.977 13.958C177.989 13.946 177.995 13.928 177.995 13.904C178.031 13.76 178.115 13.7 178.247 13.724L179.867 13.976C179.927 13.988 179.975 14.018 180.011 14.066C180.059 14.102 180.077 14.156 180.065 14.228C180.029 14.42 179.999 14.558 179.975 14.642C179.747 15.41 179.285 16.022 178.589 16.478C177.893 16.922 177.077 17.144 176.141 17.144ZM186.28 7.658C187.252 7.658 188.026 7.946 188.602 8.522C189.19 9.098 189.484 9.884 189.484 10.88V16.784C189.484 16.844 189.46 16.898 189.412 16.946C189.376 16.982 189.328 17 189.268 17H187.612C187.552 17 187.498 16.982 187.45 16.946C187.414 16.898 187.396 16.844 187.396 16.784V11.312C187.396 10.76 187.24 10.316 186.928 9.98C186.616 9.632 186.202 9.458 185.686 9.458C185.17 9.458 184.75 9.626 184.426 9.962C184.114 10.298 183.958 10.742 183.958 11.294V16.784C183.958 16.844 183.934 16.898 183.886 16.946C183.85 16.982 183.802 17 183.742 17H182.086C182.026 17 181.972 16.982 181.924 16.946C181.888 16.898 181.87 16.844 181.87 16.784V4.616C181.87 4.556 181.888 4.508 181.924 4.472C181.972 4.424 182.026 4.4 182.086 4.4H183.742C183.802 4.4 183.85 4.424 183.886 4.472C183.934 4.508 183.958 4.556 183.958 4.616V8.594C183.958 8.63 183.97 8.654 183.994 8.666C184.018 8.678 184.036 8.666 184.048 8.63C184.54 7.982 185.284 7.658 186.28 7.658ZM203.994 5.984C203.994 6.044 203.97 6.098 203.922 6.146C203.886 6.182 203.838 6.2 203.778 6.2H197.64C197.58 6.2 197.55 6.23 197.55 6.29V9.656C197.55 9.716 197.58 9.746 197.64 9.746H201.762C201.822 9.746 201.87 9.77 201.906 9.818C201.954 9.854 201.978 9.902 201.978 9.962V11.33C201.978 11.39 201.954 11.444 201.906 11.492C201.87 11.528 201.822 11.546 201.762 11.546H197.64C197.58 11.546 197.55 11.576 197.55 11.636V15.11C197.55 15.17 197.58 15.2 197.64 15.2H203.778C203.838 15.2 203.886 15.224 203.922 15.272C203.97 15.308 203.994 15.356 203.994 15.416V16.784C203.994 16.844 203.97 16.898 203.922 16.946C203.886 16.982 203.838 17 203.778 17H195.678C195.618 17 195.564 16.982 195.516 16.946C195.48 16.898 195.462 16.844 195.462 16.784V4.616C195.462 4.556 195.48 4.508 195.516 4.472C195.564 4.424 195.618 4.4 195.678 4.4H203.778C203.838 4.4 203.886 4.424 203.922 4.472C203.97 4.508 203.994 4.556 203.994 4.616V5.984ZM210.327 7.658C211.299 7.658 212.073 7.946 212.649 8.522C213.237 9.098 213.531 9.884 213.531 10.88V16.784C213.531 16.844 213.507 16.898 213.459 16.946C213.423 16.982 213.375 17 213.315 17H211.659C211.599 17 211.545 16.982 211.497 16.946C211.461 16.898 211.443 16.844 211.443 16.784V11.312C211.443 10.76 211.287 10.316 210.975 9.98C210.663 9.632 210.249 9.458 209.733 9.458C209.217 9.458 208.797 9.626 208.473 9.962C208.161 10.298 208.005 10.742 208.005 11.294V16.784C208.005 16.844 207.981 16.898 207.933 16.946C207.897 16.982 207.849 17 207.789 17H206.133C206.073 17 206.019 16.982 205.971 16.946C205.935 16.898 205.917 16.844 205.917 16.784V8.018C205.917 7.958 205.935 7.91 205.971 7.874C206.019 7.826 206.073 7.802 206.133 7.802H207.789C207.849 7.802 207.897 7.826 207.933 7.874C207.981 7.91 208.005 7.958 208.005 8.018V8.594C208.005 8.63 208.017 8.654 208.041 8.666C208.065 8.678 208.083 8.666 208.095 8.63C208.587 7.982 209.331 7.658 210.327 7.658ZM221.342 8.018C221.342 7.958 221.36 7.91 221.396 7.874C221.444 7.826 221.498 7.802 221.558 7.802H223.214C223.274 7.802 223.322 7.826 223.358 7.874C223.406 7.91 223.43 7.958 223.43 8.018V16.388C223.43 17.888 222.998 18.956 222.134 19.592C221.282 20.24 220.16 20.564 218.768 20.564C218.396 20.564 218.03 20.546 217.67 20.51C217.538 20.498 217.472 20.42 217.472 20.276L217.526 18.8C217.526 18.668 217.61 18.602 217.778 18.602C218.126 18.638 218.438 18.656 218.714 18.656C219.614 18.656 220.274 18.476 220.694 18.116C221.126 17.768 221.342 17.174 221.342 16.334V16.19C221.342 16.154 221.33 16.136 221.306 16.136C221.282 16.124 221.258 16.13 221.234 16.154C220.742 16.682 220.046 16.946 219.146 16.946C218.366 16.946 217.652 16.748 217.004 16.352C216.356 15.956 215.906 15.35 215.654 14.534C215.498 13.97 215.42 13.244 215.42 12.356C215.42 11.36 215.516 10.598 215.708 10.07C215.948 9.338 216.362 8.756 216.95 8.324C217.538 7.88 218.228 7.658 219.02 7.658C219.968 7.658 220.706 7.934 221.234 8.486C221.258 8.522 221.282 8.534 221.306 8.522C221.33 8.51 221.342 8.486 221.342 8.45V8.018ZM221.216 13.94C221.264 13.76 221.294 13.568 221.306 13.364C221.33 13.148 221.342 12.806 221.342 12.338C221.342 11.882 221.33 11.558 221.306 11.366C221.294 11.162 221.258 10.964 221.198 10.772C221.102 10.376 220.904 10.058 220.604 9.818C220.316 9.578 219.944 9.458 219.488 9.458C219.056 9.458 218.69 9.578 218.39 9.818C218.09 10.058 217.874 10.376 217.742 10.772C217.598 11.108 217.526 11.636 217.526 12.356C217.526 13.1 217.586 13.622 217.706 13.922C217.826 14.306 218.042 14.624 218.354 14.876C218.678 15.116 219.062 15.236 219.506 15.236C219.974 15.236 220.352 15.116 220.64 14.876C220.928 14.636 221.12 14.324 221.216 13.94ZM226.775 6.542C226.403 6.542 226.097 6.422 225.857 6.182C225.617 5.942 225.497 5.636 225.497 5.264C225.497 4.892 225.617 4.586 225.857 4.346C226.097 4.106 226.403 3.986 226.775 3.986C227.147 3.986 227.453 4.106 227.693 4.346C227.933 4.586 228.053 4.892 228.053 5.264C228.053 5.636 227.933 5.942 227.693 6.182C227.453 6.422 227.147 6.542 226.775 6.542ZM225.911 17C225.851 17 225.797 16.982 225.749 16.946C225.713 16.898 225.695 16.844 225.695 16.784V8C225.695 7.94 225.713 7.892 225.749 7.856C225.797 7.808 225.851 7.784 225.911 7.784H227.567C227.627 7.784 227.675 7.808 227.711 7.856C227.759 7.892 227.783 7.94 227.783 8V16.784C227.783 16.844 227.759 16.898 227.711 16.946C227.675 16.982 227.627 17 227.567 17H225.911ZM234.585 7.658C235.557 7.658 236.331 7.946 236.907 8.522C237.495 9.098 237.789 9.884 237.789 10.88V16.784C237.789 16.844 237.765 16.898 237.717 16.946C237.681 16.982 237.633 17 237.573 17H235.917C235.857 17 235.803 16.982 235.755 16.946C235.719 16.898 235.701 16.844 235.701 16.784V11.312C235.701 10.76 235.545 10.316 235.233 9.98C234.921 9.632 234.507 9.458 233.991 9.458C233.475 9.458 233.055 9.626 232.731 9.962C232.419 10.298 232.263 10.742 232.263 11.294V16.784C232.263 16.844 232.239 16.898 232.191 16.946C232.155 16.982 232.107 17 232.047 17H230.391C230.331 17 230.277 16.982 230.229 16.946C230.193 16.898 230.175 16.844 230.175 16.784V8.018C230.175 7.958 230.193 7.91 230.229 7.874C230.277 7.826 230.331 7.802 230.391 7.802H232.047C232.107 7.802 232.155 7.826 232.191 7.874C232.239 7.91 232.263 7.958 232.263 8.018V8.594C232.263 8.63 232.275 8.654 232.299 8.666C232.323 8.678 232.341 8.666 232.353 8.63C232.845 7.982 233.589 7.658 234.585 7.658ZM247.653 11.366C247.701 11.666 247.725 12.002 247.725 12.374L247.707 12.932C247.707 13.076 247.635 13.148 247.491 13.148H241.857C241.797 13.148 241.767 13.178 241.767 13.238C241.803 13.634 241.857 13.904 241.929 14.048C242.217 14.912 242.919 15.35 244.035 15.362C244.851 15.362 245.499 15.026 245.979 14.354C246.027 14.282 246.087 14.246 246.159 14.246C246.207 14.246 246.249 14.264 246.285 14.3L247.401 15.218C247.509 15.302 247.527 15.398 247.455 15.506C247.083 16.034 246.585 16.442 245.961 16.73C245.349 17.018 244.665 17.162 243.909 17.162C242.973 17.162 242.175 16.952 241.515 16.532C240.867 16.112 240.393 15.524 240.093 14.768C239.817 14.12 239.679 13.22 239.679 12.068C239.679 11.372 239.751 10.808 239.895 10.376C240.135 9.536 240.585 8.876 241.245 8.396C241.917 7.904 242.721 7.658 243.657 7.658C246.021 7.658 247.353 8.894 247.653 11.366ZM243.657 9.458C243.213 9.458 242.841 9.572 242.541 9.8C242.253 10.016 242.049 10.322 241.929 10.718C241.857 10.922 241.809 11.186 241.785 11.51C241.761 11.57 241.785 11.6 241.857 11.6H245.511C245.571 11.6 245.601 11.57 245.601 11.51C245.577 11.21 245.541 10.982 245.493 10.826C245.385 10.394 245.169 10.058 244.845 9.818C244.533 9.578 244.137 9.458 243.657 9.458Z" fill="#2B2F39"/>
<defs>
<linearGradient id="paint0_linear_2_38" x1="10.0011" y1="0" x2="10.0011" y2="20" gradientUnits="userSpaceOnUse">
<stop stop-color="#00EAFF"/>
<stop offset="1" stop-color="#00C0FF"/>
</linearGradient>
<clipPath id="clip0_2_38">
<rect width="20" height="20" fill="white"/>
</clipPath>
<clipPath id="clip1_2_38">
<rect width="14.8557" height="14.2143" fill="white" transform="translate(0 5.78571)"/>
</clipPath>
</defs>
</svg>
